<?xml version="1.0" encoding="iso-8859-1"?>
<!-- Uploaded to: SVG Repo, www.svgrepo.com, Generator: SVG Repo Mixer Tools -->
<svg fill="#000000" height="800px" width="800px" version="1.1" id="Layer_1" xmlns="http://www.w3.org/2000/svg" xmlns:xlink="http://www.w3.org/1999/xlink" 
	 viewBox="0 0 512 512" xml:space="preserve">
<g transform="translate(0 -1)">
	<g>
		<g>
			<path d="M256.003,111.933c10.948,0,26.863-41.361,34.295-78.481l2.219-7.782c-9.737-2.978-10.863-12.792-10.914-16.137
				c0-4.719-3.823-8.533-8.533-8.533h-34.133c-4.719,0-8.533,3.814-8.533,8.533c0,2.364-0.708,12.442-10.172,15.846l1.493,8.226
				C229.132,70.572,245.047,111.933,256.003,111.933z"/>
			<path d="M358.4,60.998c0-8.858-2.978-16.256-8.832-21.999c-10.428-10.223-27.511-12.194-39.569-12.459l-3.123,10.931
				C302.712,58.429,286.242,129,256,129s-46.711-70.571-51.029-92.194l-1.869-10.274c-12.083,0.171-29.909,1.92-40.67,12.467
				c-5.854,5.743-8.832,13.141-8.832,21.999c0,16.427,11.742,29.551,24.166,43.452c13.295,14.848,27.034,30.217,27.034,50.15
				c0,19.405-5.871,32.99-12.075,47.377c-6.647,15.42-13.525,31.352-13.525,54.485c0,24.431,5.453,63.471,10.257,97.92
				c3.644,26.044,7.074,50.628,7.074,61.815c0,26.658-0.265,87.962-0.265,87.97c-0.017,4.702,3.772,8.542,8.491,8.567L256.043,513
				l51.2-0.265c4.719-0.026,8.508-3.866,8.491-8.567c0-0.009-0.265-61.312-0.265-87.97c0-11.187,3.43-35.772,7.074-61.815
				c4.804-34.449,10.257-73.489,10.257-97.92c0-23.134-6.878-39.066-13.525-54.485C313.062,187.59,307.2,174.005,307.2,154.6
				c0-19.934,13.739-35.302,27.034-50.15C346.658,90.549,358.4,77.425,358.4,60.998z"/>
		</g>
	</g>
</g>
</svg>